<svg width="14" height="17" viewBox="0 0 14 17" fill="none" xmlns="http://www.w3.org/2000/svg">
<path d="M0.382543 13.1946C0.417126 12.9366 0.443728 12.6759 0.488951 12.4205C0.837438 10.545 1.81639 9.07928 3.36995 7.97529C4.44468 8.99415 5.71093 9.53151 7.19001 9.52885C8.66376 9.52885 9.92736 8.99681 11.0127 7.96997C11.2282 8.14022 11.4543 8.3025 11.6618 8.48605C12.9706 9.64856 13.7421 11.0984 13.9523 12.8408C13.9656 12.9579 13.9842 13.0776 14.0001 13.1946C14.0001 13.3356 14.0001 13.4793 14.0001 13.6202C11.872 17.8765 3.36995 17.8765 0.379883 13.6202C0.382543 13.4793 0.382543 13.3356 0.382543 13.1946Z" fill="white"/>
<path d="M7.51218 0C7.78086 0.0532041 8.05486 0.0877868 8.31556 0.162273C9.91168 0.606527 11.0928 2.0191 11.2577 3.67108C11.4865 5.96152 9.80527 7.97264 7.5042 8.16151C5.4319 8.33442 3.52453 6.85801 3.17338 4.80699C2.79563 2.61498 4.16564 0.571944 6.33903 0.090447C6.5146 0.0505439 6.69549 0.0292623 6.87373 0C7.08654 0 7.29936 0 7.51218 0Z" fill="white"/>
</svg>
